# File created by Blade
# Date/Time:  Wed Apr 08 17:31:39 2015
# Frame Rate: 120.000 fps
#------------------------------------------------------
:FULLY-SPECIFIED
:DEGREES
589
root 1.353143 22.439292 -0.714501 -574.612385 -86.453820 395.624813
Spine 205.741977 -0.021694 0.542790
Head 14.022968 12.945610 2.291512
LeftShoulder -2.775703 22.980724 25.987886
LeftArm 24.521722 8.349104 -80.327847
LeftForeArm 24.409569 -0.000000 37.657140
LeftHand -11.337757 -0.000000 -1.712588
LeftHandThumb1 -26.253704 0.000000 33.147579
RightShoulder -23.471374 -55.012323 -11.295944
RightArm 54.686473 -1.415123 35.078754
RightForeArm -8.761407 -0.000000 46.494322
RightHand 5.907585 -0.000000 -2.433399
RightHandThumb1 -24.326973 -0.000000 -32.862282
LeftUpLeg 121.535333 -9.981099 -13.005829
LeftLeg 117.934859 -0.000000 -0.000000
LeftFoot -29.379301 -6.008876 -10.934315
LeftToeBase -22.390296 -0.000000 0.000000
RightUpLeg 126.360198 13.261325 16.918426
RightLeg 119.767923 -0.000000 -0.000000
RightFoot -33.718149 12.827435 14.609932
RightToeBase -20.376916 -0.000000 0.000000
590
root 1.302956 22.422505 -0.698410 -574.682084 -86.515951 395.827073
Spine 205.382032 -0.023767 0.571232
Head 14.035203 12.928643 2.255308
LeftShoulder -2.896381 23.096274 25.868630
LeftArm 24.300456 8.765375 -80.539343
LeftForeArm 24.529638 -0.000000 37.721140
LeftHand -11.312462 0.000000 -1.851516
LeftHandThumb1 -26.253704 0.000000 33.147579
RightShoulder -23.791514 -55.105757 -11.000149
RightArm 54.701674 -1.891914 35.122999
RightForeArm -8.716907 -0.000000 46.711015
RightHand 5.900958 -0.000000 -2.708286
RightHandThumb1 -24.326973 -0.000000 -32.862282
LeftUpLeg 121.485978 -10.106887 -13.037175
LeftLeg 118.070461 -0.000000 -0.000000
LeftFoot -29.364501 -6.087327 -10.880230
LeftToeBase -22.640453 -0.000000 0.000000
RightUpLeg 126.284103 13.292114 16.906421
RightLeg 119.853323 -0.000000 -0.000000
RightFoot -33.697156 12.776798 14.596274
RightToeBase -20.546475 -0.000000 0.000000
591
root 1.252328 22.405390 -0.683413 -575.036813 -86.572773 396.335326
Spine 204.996951 -0.034789 0.609175
Head 14.053764 12.928740 2.210382
LeftShoulder -2.994495 23.193517 25.805729
LeftArm 24.147006 9.351531 -80.711196
LeftForeArm 24.239339 -0.000000 37.637525
LeftHand -11.442059 -0.000000 -1.594385
LeftHandThumb1 -26.253704 0.000000 33.147579
RightShoulder -24.060284 -55.237051 -10.758140
RightArm 54.694038 -2.333990 35.259200
RightForeArm -8.785290 -0.000000 46.931194
RightHand 5.907862 -0.000000 -2.675015
RightHandThumb1 -24.326973 -0.000000 -32.862282
LeftUpLeg 121.444403 -10.246111 -13.070667
LeftLeg 118.194148 -0.000000 -0.000000
LeftFoot -29.370135 -6.264658 -10.878902
LeftToeBase -22.894459 -0.000000 0.000000
RightUpLeg 126.184920 13.353235 16.902813
RightLeg 119.944359 -0.000000 -0.000000
RightFoot -33.667220 12.725520 14.548850
RightToeBase -20.773667 -0.000000 0.000000
592
root 1.204755 22.387409 -0.664390 -574.876694 -86.652325 396.250156
Spine 204.677827 -0.025792 0.607523
Head 14.074069 12.959271 2.163552
LeftShoulder -3.154156 23.268043 25.728182
LeftArm 24.012775 9.951891 -80.871004
LeftForeArm 24.199499 0.000000 37.468257
LeftHand -11.488263 -0.000000 -1.478166
LeftHandThumb1 -26.253704 0.000000 33.147579
RightShoulder -24.376013 -55.347614 -10.479980
RightArm 54.757829 -2.791257 35.342620
RightForeArm -8.665098 -0.000000 47.045267
RightHand 5.952697 -0.000000 -2.618681
RightHandThumb1 -24.326973 -0.000000 -32.862282
LeftUpLeg 121.462862 -10.390048 -13.144126
LeftLeg 118.329776 -0.000000 -0.000000
LeftFoot -29.368139 -6.444544 -10.838826
LeftToeBase -23.175257 -0.000000 0.000000
RightUpLeg 126.169748 13.392656 16.895199
RightLeg 120.033048 -0.000000 -0.000000
RightFoot -33.654258 12.753028 14.582835
RightToeBase -20.857479 -0.000000 0.000000
593
root 1.150057 22.376228 -0.647026 -575.117853 -86.726340 396.728282
Spine 204.230480 -0.027434 0.623111
Head 14.064839 12.984826 2.089001
LeftShoulder -3.262785 23.307740 25.634364
LeftArm 23.813490 10.402172 -81.065125
LeftForeArm 24.191694 0.000000 37.377523
LeftHand -11.452985 -0.000000 -1.507994
LeftHandThumb1 -26.253704 0.000000 33.147579
RightShoulder -24.558881 -55.424357 -10.314105
RightArm 54.742434 -3.274583 35.462359
RightForeArm -8.704086 0.000000 47.162914
RightHand 6.025297 0.000000 -2.748744
RightHandThumb1 -24.326973 -0.000000 -32.862282
LeftUpLeg 121.338897 -10.539609 -13.149330
LeftLeg 118.449356 -0.000000 -0.000000
LeftFoot -29.321756 -6.530023 -10.818340
LeftToeBase -23.516288 -0.000000 0.000000
RightUpLeg 126.058969 13.412781 16.920152
RightLeg 120.096764 -0.000000 -0.000000
RightFoot -33.754541 13.156211 15.087501
RightToeBase -20.096927 -0.000000 0.000000
594
root 1.097059 22.362879 -0.627934 -575.452948 -86.756873 397.253029
Spine 203.818124 -0.004322 0.649933
Head 14.058414 12.979877 2.020331
LeftShoulder -3.335515 23.355387 25.561152
LeftArm 23.574039 10.751808 -81.326771
LeftForeArm 24.222584 -0.000000 37.330235
LeftHand -11.156690 -0.000000 -1.696200
LeftHandThumb1 -26.253704 0.000000 33.147579
RightShoulder -24.806075 -55.500768 -10.115510
RightArm 54.745330 -3.762764 35.549445
RightForeArm -8.715467 0.000000 47.239705
RightHand 5.598924 -0.000000 -3.091432
RightHandThumb1 -24.326973 -0.000000 -32.862282
LeftUpLeg 121.254851 -10.660089 -13.133352
LeftLeg 118.562560 -0.000000 -0.000000
LeftFoot -29.301242 -6.660008 -10.829932
LeftToeBase -23.780365 -0.000000 0.000000
RightUpLeg 125.971742 13.537634 16.963436
RightLeg 120.165349 -0.000000 -0.000000
RightFoot -33.744373 13.257079 15.121540
RightToeBase -20.144556 -0.000000 0.000000
595
root 1.056302 22.344309 -0.611514 -574.317720 -86.841493 396.100912
Spine 203.568428 0.006121 0.621328
Head 14.082532 12.971783 2.053073
LeftShoulder -3.412884 23.489534 25.538067
LeftArm 23.364701 11.015997 -81.607407
LeftForeArm 24.408839 -0.000000 37.322054
LeftHand -11.240212 -0.000000 -1.709226
LeftHandThumb1 -26.253704 0.000000 33.147579
RightShoulder -25.055494 -55.583905 -9.867527
RightArm 54.772742 -4.272995 35.622163
RightForeArm -8.748334 0.000000 47.241617
RightHand 5.964352 -0.000000 -2.890576
RightHandThumb1 -24.326973 -0.000000 -32.862282
LeftUpLeg 121.324860 -10.712317 -13.269837
LeftLeg 118.707482 -0.000000 -0.000000
LeftFoot -29.294328 -6.783469 -10.843800
LeftToeBase -24.088716 -0.000000 0.000000
RightUpLeg 126.010757 13.677955 16.927134
RightLeg 120.249515 -0.000000 -0.000000
RightFoot -33.627184 13.186459 14.958108
RightToeBase -20.438479 -0.000000 0.000000
596
root 1.000324 22.333894 -0.589226 -575.012521 -86.923801 397.063092
Spine 203.092548 0.007082 0.632710
Head 14.063052 13.003032 1.975394
LeftShoulder -3.542379 23.641938 25.388134
LeftArm 23.203266 11.303408 -81.842322
LeftForeArm 24.530405 -0.000000 37.377187
LeftHand -11.399128 -0.000000 -1.485551
LeftHandThumb1 -26.253704 0.000000 33.147579
RightShoulder -25.266057 -55.665534 -9.699721
RightArm 54.814859 -4.724994 35.674877
RightForeArm -8.584137 -0.000000 47.261677
RightHand 5.952637 -0.000000 -2.493993
RightHandThumb1 -24.326973 -0.000000 -32.862282
LeftUpLeg 121.203259 -10.996778 -13.255779
LeftLeg 118.819586 -0.000000 -0.000000
LeftFoot -29.270055 -6.987221 -10.791359
LeftToeBase -24.338836 -0.000000 0.000000
RightUpLeg 125.820077 13.770226 16.948077
RightLeg 120.302321 -0.000000 -0.000000
RightFoot -33.566102 13.199865 14.888527
RightToeBase -20.669450 -0.000000 0.000000
597
root 0.959120 22.317104 -0.577665 -574.277944 -86.988309 396.309287
Spine 202.845867 0.030918 0.636721
Head 14.085832 12.968006 2.013110
LeftShoulder -3.630416 23.764524 25.346897
LeftArm 22.970825 11.510822 -82.141086
LeftForeArm 24.735841 -0.000000 37.356675
LeftHand -11.545929 -0.000000 -1.278892
LeftHandThumb1 -26.253704 0.000000 33.147579
RightShoulder -25.538072 -55.773745 -9.426498
RightArm 54.885351 -5.205324 35.720804
RightForeArm -8.564746 -0.000000 47.226876
RightHand 5.780982 -0.000000 -2.383755
RightHandThumb1 -24.326973 -0.000000 -32.862282
LeftUpLeg 121.278168 -11.073791 -13.369000
LeftLeg 118.950754 -0.000000 -0.000000
LeftFoot -29.235155 -7.122947 -10.797475
LeftToeBase -24.642813 -0.000000 0.000000
RightUpLeg 125.884911 13.836824 16.948198
RightLeg 120.380357 -0.000000 -0.000000
RightFoot -33.477789 13.236059 14.841371
RightToeBase -20.962210 -0.000000 0.000000
598
root 0.906681 22.308167 -0.556913 -573.902447 -87.052125 396.142415
Spine 202.420186 0.047246 0.619919
Head 14.054250 12.923939 1.986773
LeftShoulder -3.719586 23.866766 25.261710
LeftArm 22.808216 11.587154 -82.466287
LeftForeArm 24.473545 -0.000000 37.268893
LeftHand -11.483874 -0.000000 -1.284026
LeftHandThumb1 -26.253704 0.000000 33.147579
RightShoulder -25.730765 -55.828192 -9.253101
RightArm 54.889352 -5.686209 35.819194
RightForeArm -8.533492 -0.000000 47.201306
RightHand 5.735999 -0.000000 -2.307190
RightHandThumb1 -24.326973 -0.000000 -32.862282
LeftUpLeg 121.157396 -11.272117 -13.380127
LeftLeg 119.067565 -0.000000 -0.000000
LeftFoot -29.165454 -7.212133 -10.725807
LeftToeBase -24.984390 -0.000000 0.000000
RightUpLeg 125.784417 13.988460 16.960266
RightLeg 120.409392 -0.000000 -0.000000
RightFoot -33.403403 13.359111 14.822196
RightToeBase -21.137054 -0.000000 0.000000
599
root 0.866696 22.295874 -0.537397 -573.229719 -87.107708 395.491046
Spine 202.152488 0.066829 0.594964
Head 14.063902 12.888542 1.996399
LeftShoulder -3.813584 23.963486 25.205846
LeftArm 22.649216 11.700598 -82.777967
LeftForeArm 24.222433 -0.000000 37.151941
LeftHand -11.506568 -0.000000 -1.303943
LeftHandThumb1 -26.253704 0.000000 33.147579
RightShoulder -25.976495 -55.903869 -9.010750
RightArm 54.892946 -6.141376 35.881825
RightForeArm -8.520246 -0.000000 47.170185
RightHand 5.133205 -0.000000 -2.677395
RightHandThumb1 -24.326973 -0.000000 -32.862282
LeftUpLeg 121.177029 -11.390351 -13.433845
LeftLeg 119.191958 -0.000000 -0.000000
LeftFoot -29.115505 -7.275213 -10.657042
LeftToeBase -25.260287 -0.000000 0.000000
RightUpLeg 125.825219 14.097200 16.991244
RightLeg 120.453849 -0.000000 -0.000000
RightFoot -33.308327 13.441390 14.778679
RightToeBase -21.336330 -0.000000 0.000000
600
root 0.823577 22.285715 -0.518635 -572.725957 -87.172479 395.075780
Spine 201.830834 0.081970 0.577542
Head 14.057217 12.845010 2.009344
LeftShoulder -3.921542 24.003684 25.152239
LeftArm 22.461952 11.828299 -83.074687
LeftForeArm 23.820492 0.000000 37.003498
LeftHand -11.589569 0.000000 -1.188492
LeftHandThumb1 -26.253704 0.000000 33.147579
RightShoulder -26.162650 -55.939235 -8.836983
RightArm 54.875722 -6.618398 36.019939
RightForeArm -8.481660 -0.000000 47.096860
RightHand 5.467673 -0.000000 -2.387624
RightHandThumb1 -24.326973 -0.000000 -32.862282
LeftUpLeg 121.149190 -11.559299 -13.474098
LeftLeg 119.305544 -0.000000 -0.000000
LeftFoot -29.049823 -7.355145 -10.585334
LeftToeBase -25.591620 -0.000000 0.000000
RightUpLeg 125.804041 14.217388 17.005350
RightLeg 120.493882 -0.000000 -0.000000
RightFoot -33.233506 13.495676 14.711187
RightToeBase -21.494208 -0.000000 0.000000
